<svg width="41" height="40" viewBox="0 0 41 40" fill="none" xmlns="http://www.w3.org/2000/svg">
<circle cx="20.748" cy="20" r="19" stroke="#404040" stroke-width="2"/>
<path d="M17.434 24V22.292L20.696 19.618C21.34 19.086 21.7833 18.6613 22.026 18.344C22.2687 18.0173 22.39 17.658 22.39 17.266C22.39 16.8647 22.2687 16.552 22.026 16.328C21.7833 16.104 21.466 15.992 21.074 15.992C20.71 15.992 20.3787 16.0947 20.08 16.3C19.7907 16.496 19.4547 16.832 19.072 17.308L17.56 16.09C18.0733 15.39 18.6007 14.8767 19.142 14.55C19.6927 14.2233 20.3833 14.06 21.214 14.06C22.2313 14.06 23.048 14.34 23.664 14.9C24.28 15.4507 24.588 16.188 24.588 17.112C24.588 17.644 24.4853 18.1247 24.28 18.554C24.0747 18.974 23.8087 19.3473 23.482 19.674C23.1553 19.9913 22.6653 20.402 22.012 20.906L20.416 22.138H24.686V24H17.434Z" fill="#404040"/>
</svg>
