<svg width="41" height="40" viewBox="0 0 41 40" fill="none" xmlns="http://www.w3.org/2000/svg">
<circle cx="20.748" cy="20" r="19" stroke="#404040" stroke-width="2"/>
<path d="M22.102 24.168C20.506 24.168 19.232 23.6033 18.28 22.474L19.764 21.06C20.464 21.844 21.2527 22.236 22.13 22.236C22.5407 22.236 22.872 22.1287 23.124 21.914C23.3853 21.69 23.516 21.3913 23.516 21.018C23.516 20.6167 23.348 20.3087 23.012 20.094C22.676 19.8793 22.2047 19.772 21.598 19.772H20.702L20.366 18.4L22.704 16.048H18.854V14.2H25.476V15.824L22.998 18.19C24.7527 18.4887 25.63 19.4127 25.63 20.962C25.63 21.9047 25.308 22.6747 24.664 23.272C24.0293 23.8693 23.1753 24.168 22.102 24.168Z" fill="#404040"/>
</svg>
