<svg width="56" height="55" viewBox="0 0 56 55" fill="none" xmlns="http://www.w3.org/2000/svg">
<g clip-path="url(#clip0_0_1164)">
<path d="M51.2131 29.6422C51.2131 43.5088 39.9721 54.7498 26.1056 54.7498C12.239 54.7498 0.997986 43.5088 0.997986 29.6422C0.997986 15.7757 12.239 4.53467 26.1056 4.53467C39.9721 4.53467 51.2131 15.7757 51.2131 29.6422Z" stroke="black" stroke-width="0.5"/>
<path d="M44.2429 29.6422C44.2429 39.6591 36.1226 47.7795 26.1056 47.7795C16.0887 47.7795 7.96832 39.6591 7.96832 29.6422C7.96832 19.6252 16.0887 11.5049 26.1056 11.5049C36.1226 11.5049 44.2429 19.6252 44.2429 29.6422Z" stroke="black" stroke-width="0.5"/>
<path d="M37.2725 29.6425C37.2725 35.8098 32.2729 40.8094 26.1056 40.8094C19.9383 40.8094 14.9387 35.8098 14.9387 29.6425C14.9387 23.4752 19.9383 18.4756 26.1056 18.4756C32.2729 18.4756 37.2725 23.4752 37.2725 29.6425Z" stroke="black" stroke-width="0.5"/>
<path d="M26.1055 34.089C28.5613 34.089 30.5521 32.0982 30.5521 29.6424C30.5521 27.1866 28.5613 25.1958 26.1055 25.1958C23.6497 25.1958 21.6589 27.1866 21.6589 29.6424C21.6589 32.0982 23.6497 34.089 26.1055 34.089Z" fill="url(#paint0_linear_0_1164)"/>
<path d="M49.6134 0.115666L44.0506 5.67851C43.8115 5.91763 43.6866 6.24784 43.7079 6.58526L44.0301 11.718L50.584 5.16406L50.283 0.368751C50.2618 0.0312319 49.8526 -0.123456 49.6134 0.115666Z" fill="url(#paint1_linear_0_1164)"/>
<path d="M55.6326 6.13462L50.0697 11.6975C49.8306 11.9366 49.5004 12.0614 49.1629 12.0401L44.0302 11.718L50.5841 5.16406L55.3795 5.46506C55.7169 5.48622 55.8716 5.89561 55.6326 6.13462Z" fill="url(#paint2_linear_0_1164)"/>
<path d="M26.1055 30.222C25.9569 30.222 25.8089 30.1655 25.6956 30.0522C25.4692 29.8259 25.4692 29.4588 25.6956 29.2324L53.4058 1.52233C53.6322 1.29594 53.9993 1.29594 54.2258 1.52233C54.4521 1.74869 54.4521 2.11578 54.2257 2.34212L26.5155 30.0522C26.4023 30.1654 26.2543 30.222 26.1055 30.222Z" stroke="black" stroke-width="0.5"/>
</g>
<defs>
<linearGradient id="paint0_linear_0_1164" x1="26.1055" y1="25.1958" x2="26.1055" y2="34.089" gradientUnits="userSpaceOnUse">
<stop stop-color="#4614E8"/>
<stop offset="1" stop-color="#BCA7FF"/>
</linearGradient>
<linearGradient id="paint1_linear_0_1164" x1="47.1448" y1="0" x2="47.1448" y2="11.718" gradientUnits="userSpaceOnUse">
<stop stop-color="#4614E8"/>
<stop offset="1" stop-color="#BCA7FF"/>
</linearGradient>
<linearGradient id="paint2_linear_0_1164" x1="49.8892" y1="5.16406" x2="49.8892" y2="12.0425" gradientUnits="userSpaceOnUse">
<stop stop-color="#4614E8"/>
<stop offset="1" stop-color="#BCA7FF"/>
</linearGradient>
<clipPath id="clip0_0_1164">
<rect width="55" height="55" fill="white" transform="translate(0.747986)"/>
</clipPath>
</defs>
</svg>
