<svg width="23" height="23" viewBox="0 0 23 23" fill="none" xmlns="http://www.w3.org/2000/svg">
<g clip-path="url(#clip0_55_1805)">
<path d="M15.9736 0.25H13.6299C11.8368 0.25 10.5489 0.67562 9.7662 1.52657C8.98323 2.37781 8.59209 3.63146 8.59209 5.28806V6.86713C8.59209 7.28444 8.25387 7.62265 7.83657 7.62265H7.02664C6.60933 7.62265 6.27112 7.96087 6.27112 8.37818V10.7445C6.27112 11.1618 6.60933 11.5 7.02664 11.5H7.83657C8.25387 11.5 8.59209 11.8382 8.59209 12.2555V21.9944C8.59209 22.4117 8.93031 22.75 9.34761 22.75H12.4921C12.9094 22.75 13.2476 22.4117 13.2476 21.9944V12.2555C13.2476 11.8382 13.5859 11.5 14.0031 11.5H15.5912C16.0086 11.5 16.3823 11.1636 16.4261 10.7488L16.6769 8.3739C16.7208 7.95889 16.4181 7.62265 16.0007 7.62265H14.0029C13.5856 7.62265 13.2474 7.28444 13.2474 6.86713V5.68397C13.2474 5.39283 13.261 5.16745 13.2884 5.00803C13.3156 4.84886 13.377 4.69195 13.4727 4.53706C13.5682 4.38246 13.7231 4.27543 13.9369 4.21621C14.1507 4.15704 14.4353 4.12733 14.7901 4.12733H15.9733C16.3906 4.12733 16.7287 3.78911 16.7287 3.3718V1.00552C16.7291 0.588216 16.3909 0.25 15.9736 0.25Z" fill="#273895"/>
</g>
<defs>
<clipPath id="clip0_55_1805">
<rect width="22.5" height="22.5" fill="white" transform="translate(0.25 0.25)"/>
</clipPath>
</defs>
</svg>
