<svg width="23" height="23" viewBox="0 0 23 23" fill="none" xmlns="http://www.w3.org/2000/svg">
<g clip-path="url(#clip0_55_1809)">
<path d="M16.7741 0H6.22588C2.79287 0 0 2.79287 0 6.22588V16.7743C0 20.2071 2.79287 23 6.22588 23H16.7743C20.2071 23 23 20.2071 23 16.7743V6.22588C23 2.79287 20.2071 0 16.7741 0V0ZM11.5 17.7889C8.03223 17.7889 5.2111 14.9677 5.2111 11.5C5.2111 8.03223 8.03223 5.2111 11.5 5.2111C14.9677 5.2111 17.7889 8.03223 17.7889 11.5C17.7889 14.9677 14.9677 17.7889 11.5 17.7889ZM17.9392 6.69422C16.9145 6.69422 16.0809 5.86071 16.0809 4.83594C16.0809 3.81116 16.9145 2.97747 17.9392 2.97747C18.964 2.97747 19.7977 3.81116 19.7977 4.83594C19.7977 5.86071 18.964 6.69422 17.9392 6.69422Z" fill="#273895"/>
<path d="M11.5 6.55957C8.77588 6.55957 6.55945 8.77583 6.55945 11.5001C6.55945 14.2242 8.77588 16.4406 11.5 16.4406C14.2242 16.4406 16.4405 14.2242 16.4405 11.5001C16.4405 8.77583 14.2242 6.55957 11.5 6.55957Z" fill="#273895"/>
<path d="M17.9393 4.32617C17.6581 4.32617 17.4293 4.55499 17.4293 4.8361C17.4293 5.11722 17.6581 5.34604 17.9393 5.34604C18.2205 5.34604 18.4494 5.11739 18.4494 4.8361C18.4494 4.55482 18.2205 4.32617 17.9393 4.32617Z" fill="#273895"/>
</g>
<defs>
<clipPath id="clip0_55_1809">
<rect width="23" height="23" fill="white"/>
</clipPath>
</defs>
</svg>
