<svg width="23" height="23" viewBox="0 0 23 23" fill="none" xmlns="http://www.w3.org/2000/svg">
<path d="M0.45334 18.7785C2.58276 20.1297 5.06101 20.8437 7.61976 20.8437C11.3668 20.8437 14.8006 19.4043 17.2893 16.7909C19.6708 14.2897 20.9808 10.9288 20.9157 7.51808C21.8184 6.74567 22.8803 5.27079 22.8803 3.83329C22.8803 3.28225 22.2823 2.93246 21.7973 3.21325C20.9492 3.71158 20.1758 3.84192 19.3804 3.61862C17.756 2.03546 15.3382 1.70196 13.3008 2.80021C11.5202 3.75854 10.5302 5.51229 10.6193 7.42896C7.61113 7.06192 4.83197 5.5535 2.89422 3.20942C2.57605 2.82704 1.9723 2.87208 1.7193 3.30525C0.785882 4.90375 0.795465 6.75621 1.60717 8.25217C1.22097 8.32021 0.98234 8.64508 0.98234 8.99679C0.98234 10.5004 1.65892 11.8823 2.74855 12.8253C2.54538 13.0208 2.4783 13.3112 2.56455 13.57C3.04372 15.0094 4.12855 16.1345 5.48459 16.698C4.00972 17.4023 2.37863 17.6371 0.926757 17.4589C0.175424 17.3573 -0.195451 18.3674 0.45334 18.7785ZM7.81622 16.9443C8.35384 16.5312 8.06826 15.6706 7.39359 15.6562C6.20526 15.6313 5.1233 15.0458 4.44959 14.1248C4.77447 14.1038 5.11084 14.0539 5.43092 13.9677C6.16021 13.7702 6.12572 12.718 5.38492 12.5695C4.04038 12.2992 2.98526 11.3198 2.58947 10.0586C2.95076 10.1478 3.31876 10.1976 3.6858 10.2043C4.41317 10.2081 4.68822 9.27567 4.09501 8.88562C2.75813 8.00492 2.18792 6.44954 2.56551 4.98712C4.90001 7.35229 8.0673 8.77733 11.4176 8.93833C11.8978 8.96804 12.2581 8.51667 12.1527 8.05954C11.6975 6.08633 12.7995 4.70346 13.9831 4.06617C15.1542 3.43367 17.0344 3.23625 18.4758 4.7485C18.9041 5.19987 20.3493 5.21712 21.0843 5.04558C20.7547 5.66658 20.2477 6.25596 19.7733 6.58754C19.5711 6.72937 19.4552 6.96512 19.4676 7.21142C19.6219 10.3595 18.4489 13.4895 16.2495 15.7981C14.0339 18.124 10.9701 19.4053 7.62072 19.4053C6.28863 19.4053 4.98242 19.1887 3.74809 18.7708C5.22392 18.4852 6.62597 17.8604 7.81622 16.9443Z" fill="#273895"/>
<path d="M7.81622 16.9443C8.35384 16.5312 8.06826 15.6706 7.39359 15.6562C6.20526 15.6313 5.1233 15.0458 4.44959 14.1248C4.77447 14.1038 5.11084 14.0539 5.43092 13.9677C6.16021 13.7702 6.12572 12.718 5.38492 12.5695C4.04038 12.2992 2.98526 11.3198 2.58947 10.0586C2.95076 10.1478 3.31876 10.1976 3.6858 10.2043C4.41317 10.2081 4.68822 9.27567 4.09501 8.88562C2.75813 8.00492 2.18792 6.44954 2.56551 4.98712C4.90001 7.35229 8.0673 8.77733 11.4176 8.93833C11.8978 8.96804 12.2581 8.51667 12.1527 8.05954C11.6975 6.08633 12.7995 4.70346 13.9831 4.06617C15.1542 3.43367 17.0344 3.23625 18.4758 4.7485C18.9041 5.19987 20.3493 5.21712 21.0843 5.04558C20.7547 5.66658 20.2477 6.25596 19.7733 6.58754C19.5711 6.72937 19.4552 6.96512 19.4676 7.21142C19.6219 10.3595 18.4489 13.4895 16.2495 15.7981C14.0339 18.124 10.9701 19.4053 7.62072 19.4053C6.28863 19.4053 4.98242 19.1887 3.74809 18.7708C5.22392 18.4852 6.62597 17.8604 7.81622 16.9443Z" fill="#273895"/>
</svg>
