<svg width="23" height="23" viewBox="0 0 23 23" fill="none" xmlns="http://www.w3.org/2000/svg">
<g clip-path="url(#clip0_55_1815)">
<path d="M11.639 18.6875C14.9663 18.6875 13.7799 16.5811 14.0367 15.9754C14.0329 15.5231 14.029 15.088 14.0444 14.8235C14.2552 14.8829 14.7526 15.135 15.7799 16.1335C17.366 17.734 17.7713 18.6875 19.0526 18.6875H21.4111C22.1586 18.6875 22.5477 18.378 22.7422 18.1182C22.93 17.8672 23.114 17.4263 22.9128 16.7402C22.3867 15.088 19.3181 12.235 19.1274 11.9341C19.1561 11.8785 19.2021 11.8047 19.2261 11.7664H19.2242C19.8298 10.9662 22.1413 7.50279 22.4815 6.11704C22.4825 6.11512 22.4835 6.11225 22.4835 6.10938C22.6675 5.47687 22.4988 5.06671 22.3244 4.83479C22.0618 4.48788 21.644 4.3125 21.0795 4.3125H18.721C17.9314 4.3125 17.3324 4.71021 17.0296 5.43567C16.5226 6.72462 15.0985 9.37537 14.031 10.3136C13.9984 8.98437 14.0204 7.9695 14.0377 7.21529C14.0722 5.74425 14.1833 4.3125 12.6567 4.3125H8.94987C7.99346 4.3125 7.07825 5.35708 8.06917 6.59717C8.9355 7.68392 8.38062 8.28958 8.5675 11.3045C7.83917 10.5235 6.5435 8.41417 5.62733 5.71837C5.3705 4.98908 4.98142 4.31346 3.88604 4.31346H1.52758C0.571167 4.31346 0 4.83479 0 5.70783C0 7.66858 4.34029 18.6875 11.639 18.6875ZM3.88604 5.75096C4.094 5.75096 4.11508 5.75096 4.26937 6.18892C5.20758 8.95179 7.31208 13.04 8.84925 13.04C10.004 13.04 10.004 11.8565 10.004 11.4109L10.0031 7.86312C9.93983 6.68917 9.51242 6.10458 9.23162 5.75L12.5935 5.75383C12.5954 5.77013 12.5743 9.67821 12.603 10.625C12.603 11.9696 13.6706 12.7401 15.3372 11.0534C17.0957 9.06871 18.3118 6.10171 18.3607 5.98096C18.4326 5.80846 18.4949 5.75 18.721 5.75H21.0795H21.0891C21.0881 5.75287 21.0881 5.75575 21.0872 5.75862C20.8715 6.76487 18.7431 9.97146 18.031 10.9672C18.0195 10.9825 18.009 10.9988 17.9985 11.0151C17.6851 11.5268 17.4302 12.0922 18.0416 12.8877H18.0425C18.0981 12.9548 18.2428 13.1119 18.4537 13.3304C18.4599 13.3369 18.4664 13.3435 18.4729 13.3503C19.1521 14.0512 21.3593 16.3292 21.5567 17.2404C21.4245 17.2615 21.2808 17.2462 19.0526 17.251C18.5783 17.251 18.2074 16.5418 16.7919 15.1139C15.5192 13.8757 14.6932 13.3697 13.9409 13.3697C12.4804 13.3697 12.5867 14.5552 12.6002 15.9888C12.605 17.5432 12.5954 17.0516 12.6059 17.1494C12.5206 17.1829 12.2762 17.25 11.639 17.25C5.55833 17.25 1.5985 7.59862 1.44612 5.75383C1.49883 5.74904 2.22429 5.75192 3.88604 5.75096Z" fill="#273895"/>
<path d="M3.88604 5.75096C4.094 5.75096 4.11508 5.75096 4.26937 6.18892C5.20758 8.95179 7.31208 13.04 8.84925 13.04C10.004 13.04 10.004 11.8565 10.004 11.4109L10.0031 7.86312C9.93983 6.68917 9.51242 6.10458 9.23162 5.75L12.5935 5.75383C12.5954 5.77013 12.5743 9.67821 12.603 10.625C12.603 11.9696 13.6706 12.7401 15.3372 11.0534C17.0957 9.06871 18.3118 6.10171 18.3607 5.98096C18.4326 5.80846 18.4949 5.75 18.721 5.75H21.0795H21.0891C21.0881 5.75287 21.0881 5.75575 21.0872 5.75862C20.8715 6.76487 18.7431 9.97146 18.031 10.9672C18.0195 10.9825 18.009 10.9988 17.9985 11.0151C17.6851 11.5268 17.4302 12.0922 18.0416 12.8877H18.0425C18.0981 12.9548 18.2428 13.1119 18.4537 13.3304L18.4729 13.3503C19.1521 14.0512 21.3593 16.3292 21.5567 17.2404C21.4245 17.2615 21.2808 17.2462 19.0526 17.251C18.5783 17.251 18.2074 16.5418 16.7919 15.1139C15.5192 13.8757 14.6932 13.3697 13.9409 13.3697C12.4804 13.3697 12.5867 14.5552 12.6002 15.9888C12.605 17.5432 12.5954 17.0516 12.6059 17.1494C12.5206 17.1829 12.2762 17.25 11.639 17.25C5.55833 17.25 1.5985 7.59862 1.44612 5.75383C1.49883 5.74904 2.22429 5.75192 3.88604 5.75096Z" fill="#273895"/>
</g>
<defs>
<clipPath id="clip0_55_1815">
<rect width="23" height="23" fill="white"/>
</clipPath>
</defs>
</svg>
